<?xml version="1.0" encoding="utf-8"?>
<svg version="1.0" xmlns="http://www.w3.org/2000/svg" width="1513.000000pt" height="240.000000pt" viewBox="0 0 1820.000000 240.000000" preserveAspectRatio="xMidYMid meet">
  <title>Furry Kindness logo text</title>
  <g transform="matrix(0.1, 0, 0, -0.1, 298.998108, 267.712036)" fill="#3f2318" stroke="none">
    <path d="M10260 2251 c-8 -4 -60 -15 -115 -25 -55 -10 -110 -22 -123 -27 -13 -5 -36 -9 -52 -9 -59 0 -75 -75 -22 -100 92 -41 97 -45 110 -85 8 -23 16 -109 19 -202 l6 -162 -34 10 c-99 32 -243 35 -344 7 -196 -52 -346 -195 -409 -389 -36 -111 -41 -227 -15 -369 49 -269 234 -417 482 -388 40 5 81 13 92 17 87 36 135 68 187 125 l38 41 0 -73 c0 -70 1 -73 28 -83 41 -16 320 -2 350 17 38 25 26 65 -25 89 -24 12 -46 31 -52 45 -17 43 -30 845 -23 1320 2 113 1 215 -3 228 -6 17 -15 22 -44 22 -20 0 -43 -4 -51 -9z m-356 -733 c71 -20 113 -54 147 -119 23 -43 24 -50 24 -308 l0 -263 -41 -37 c-42 -37 -127 -71 -179 -71 -16 0 -55 7 -87 16 -69 20 -142 80 -172 140 -10 22 -22 46 -26 55 -4 8 -14 57 -21 107 -10 75 -11 109 -1 178 7 47 17 93 21 102 5 9 15 30 22 46 28 59 101 126 159 146 65 23 98 24 154 8z"/>
    <path d="M7464 2234 c-5 -1 -21 -5 -36 -8 -34 -8 -94 -59 -114 -97 -8 -16 -14 -56 -14 -97 0 -64 2 -70 33 -99 46 -44 69 -53 132 -53 119 0 195 74 195 191 0 51 -5 68 -25 95 -14 19 -36 39 -48 46 -21 11 -104 26 -123 22z"/>
    <path d="M1135 2200 c-38 -8 -708 -30 -905 -30 -105 -1 -130 -11 -130 -53 0 -31 26 -50 86 -66 49 -13 69 -34 78 -81 3 -19 6 -304 7 -632 1 -643 1 -640 -51 -664 -101 -47 -100 -46 -100 -79 0 -60 78 -75 379 -75 226 1 236 2 259 46 16 30 -14 59 -68 68 -27 4 -53 17 -71 36 l-29 28 0 261 c0 143 -4 271 -9 284 -8 20 -6 27 5 31 26 10 331 7 359 -4 32 -12 39 -19 89 -87 27 -39 44 -53 62 -53 31 0 32 4 38 247 4 164 3 203 -9 213 -18 15 -47 -3 -70 -46 -9 -18 -33 -47 -52 -66 l-34 -33 -196 -3 -196 -3 7 273 c6 222 10 276 22 288 12 12 49 15 207 14 240 0 260 -8 337 -119 32 -46 50 -55 67 -32 5 6 15 77 22 157 16 204 18 190 -26 189 -21 -1 -56 -5 -78 -9z"/>
    <path d="M5822 2161 c-176 -5 -195 -8 -208 -25 -14 -20 -11 -49 8 -73 5 -6 31 -16 58 -23 89 -21 84 2 91 -449 6 -416 4 -662 -6 -797 -8 -95 -27 -125 -94 -145 -50 -15 -70 -44 -52 -78 14 -25 25 -28 174 -41 147 -13 428 3 464 27 43 28 17 93 -36 93 -13 0 -38 7 -57 16 -54 26 -64 76 -64 329 0 197 1 213 19 229 11 10 25 15 31 11 15 -9 253 -296 315 -380 102 -136 262 -320 295 -338 36 -20 33 -20 170 4 30 6 92 12 138 16 73 4 85 8 99 29 14 22 14 26 -1 49 -11 16 -33 30 -63 38 -37 9 -62 27 -114 79 -37 37 -80 84 -95 105 -16 21 -39 49 -50 63 -43 50 -200 239 -254 305 -30 37 -65 79 -78 94 -88 100 -112 129 -112 136 0 4 8 15 18 24 15 14 70 78 137 160 11 13 38 45 60 71 22 26 67 79 100 119 110 133 188 211 239 239 43 23 51 32 54 59 5 52 -15 57 -251 55 -233 -1 -260 -7 -265 -57 -2 -26 3 -33 34 -50 55 -29 61 -46 39 -94 -10 -23 -22 -41 -27 -41 -4 0 -8 -4 -8 -10 0 -8 -170 -240 -190 -260 -3 -3 -19 -23 -35 -45 -16 -22 -35 -47 -42 -55 -7 -8 -40 -52 -74 -98 -33 -46 -66 -81 -73 -79 -8 3 -11 84 -11 293 0 256 2 293 18 324 17 34 55 60 88 60 9 0 27 8 39 18 29 23 21 68 -13 81 -36 14 -204 19 -415 12z"/>
    <path d="M1628 1685 c-2 -3 -27 -10 -54 -15 -27 -6 -65 -15 -84 -20 -19 -5 -67 -16 -107 -24 -95 -20 -113 -30 -113 -65 0 -25 7 -32 54 -54 29 -14 57 -34 62 -44 5 -10 11 -164 14 -343 7 -338 7 -342 56 -447 26 -54 87 -117 132 -134 96 -38 184 -47 256 -28 96 26 149 55 218 121 34 32 62 58 64 58 2 0 0 -22 -3 -49 -13 -113 6 -123 218 -109 119 7 147 12 163 28 28 28 14 64 -37 92 -64 35 -65 44 -66 564 l-1 451 -24 13 c-14 7 -32 9 -43 5 -10 -4 -36 -11 -58 -16 -22 -4 -58 -12 -80 -17 -22 -5 -76 -17 -120 -27 -89 -19 -105 -28 -105 -59 0 -17 14 -30 58 -52 32 -17 62 -41 69 -56 16 -31 29 -428 19 -540 -7 -68 -11 -81 -43 -117 -42 -49 -90 -76 -155 -85 -87 -13 -160 21 -193 90 -40 85 -45 150 -38 504 6 336 6 337 -15 358 -22 22 -34 27 -44 17z"/>
    <path d="M3245 1676 c-16 -6 -36 -15 -44 -21 -33 -23 -92 -90 -109 -123 -32 -62 -42 -52 -42 41 0 104 -6 111 -87 102 -32 -4 -62 -11 -68 -15 -5 -4 -26 -10 -45 -12 -69 -10 -195 -40 -207 -50 -7 -6 -13 -19 -13 -29 0 -21 37 -59 58 -59 8 0 27 -9 43 -21 l29 -20 0 -392 c-1 -293 -4 -396 -13 -408 -7 -8 -26 -22 -44 -29 -37 -17 -48 -46 -28 -76 12 -19 27 -23 112 -29 54 -4 170 -5 258 -1 139 6 163 9 179 26 16 16 18 23 9 43 -9 20 -24 27 -77 37 -105 20 -100 5 -104 340 -3 254 -1 292 13 322 24 46 64 86 104 106 37 17 134 20 154 4 21 -16 67 -23 87 -12 49 26 68 166 30 227 -35 58 -118 79 -195 49z"/>
    <path d="M3870 1678 c-72 -20 -161 -41 -242 -59 -42 -9 -59 -18 -69 -35 -11 -21 -10 -27 9 -47 12 -13 37 -29 56 -37 21 -8 39 -24 46 -41 14 -32 9 -762 -4 -791 -4 -10 -23 -23 -41 -29 -42 -15 -59 -49 -40 -76 24 -34 125 -44 340 -34 174 8 191 11 206 30 28 34 13 59 -44 76 -28 8 -58 15 -68 15 -47 0 -59 74 -59 363 0 273 3 287 67 358 71 78 133 88 239 37 58 -28 94 26 94 142 0 79 -12 106 -57 129 -37 19 -128 13 -170 -10 -56 -31 -62 -38 -110 -111 -24 -38 -48 -68 -54 -68 -6 0 -7 27 -3 75 5 60 4 79 -10 100 -18 27 -30 29 -86 13z"/>
    <path d="M7568 1685 c-2 -3 -27 -10 -54 -15 -27 -6 -65 -15 -84 -19 -19 -5 -71 -16 -115 -26 -90 -19 -105 -28 -105 -60 0 -26 22 -47 70 -65 19 -8 40 -21 47 -30 16 -19 18 -716 3 -772 -8 -28 -21 -42 -53 -60 -47 -26 -61 -64 -31 -89 25 -21 483 -21 508 0 31 26 16 63 -37 92 -89 48 -82 0 -82 533 0 452 -1 475 -19 495 -18 20 -37 27 -48 16z"/>
    <path d="M8215 1680 c-11 -4 -45 -13 -75 -19 -30 -7 -71 -16 -90 -21 -19 -5 -62 -15 -95 -22 -59 -14 -60 -14 -63 -51 -3 -36 -2 -37 50 -60 35 -16 58 -33 66 -51 16 -35 17 -598 1 -712 -12 -81 -12 -81 -55 -107 -48 -29 -56 -56 -27 -85 15 -15 45 -17 253 -17 255 0 270 3 270 51 0 26 -25 45 -83 64 -20 6 -41 19 -46 28 -15 31 -22 240 -15 464 8 253 9 255 109 302 91 44 226 30 272 -26 60 -73 79 -222 69 -537 -6 -213 -7 -216 -71 -241 -30 -12 -35 -18 -35 -46 0 -17 6 -37 14 -43 19 -16 226 -25 369 -16 108 6 119 9 133 30 21 33 5 59 -54 87 -45 22 -47 25 -59 83 -8 38 -12 156 -13 317 0 355 -19 437 -124 536 -96 91 -211 122 -344 91 -73 -17 -164 -65 -216 -114 -53 -51 -62 -46 -53 32 4 39 1 50 -19 70 -24 24 -37 27 -69 13z"/>
    <path d="M10937 1683 c-4 -3 -26 -10 -49 -14 -24 -4 -61 -12 -83 -18 -22 -5 -62 -15 -90 -21 -83 -17 -114 -30 -120 -51 -8 -25 19 -69 43 -69 9 0 30 -10 45 -23 43 -35 51 -112 43 -437 -4 -151 -11 -301 -14 -333 -7 -55 -9 -59 -47 -80 -28 -16 -41 -30 -43 -48 -4 -35 11 -44 94 -58 83 -14 407 1 431 20 16 14 17 53 1 67 -7 5 -33 16 -57 23 -23 7 -49 23 -57 34 -19 29 -29 315 -19 527 l7 157 37 36 c53 54 104 77 172 78 96 1 169 -57 206 -163 9 -25 13 -122 13 -333 l0 -298 -25 -24 c-13 -14 -31 -25 -39 -25 -9 0 -23 -11 -32 -25 -15 -23 -15 -27 -1 -43 28 -31 150 -46 310 -39 78 4 154 10 169 13 54 12 48 76 -10 100 -80 33 -79 26 -91 469 -6 189 -12 290 -21 310 -72 168 -132 228 -266 264 -122 33 -277 -21 -378 -130 -30 -32 -57 -59 -60 -59 -4 0 -6 40 -6 88 0 85 -1 89 -25 100 -30 14 -30 14 -38 5z"/>
    <path d="M12410 1679 c-138 -35 -202 -70 -287 -155 -84 -83 -133 -174 -158 -294 -29 -146 -11 -319 47 -440 120 -249 377 -345 688 -258 73 20 147 64 208 124 58 58 62 65 62 107 0 71 -19 78 -88 30 -94 -66 -170 -93 -261 -93 -157 0 -297 99 -347 246 -23 68 -14 86 47 96 24 3 71 11 104 16 33 6 94 15 135 21 41 6 98 15 125 20 28 5 84 14 125 20 106 17 173 32 188 44 7 6 12 35 12 76 0 157 -108 325 -252 394 -108 53 -250 71 -348 46z m193 -153 c39 -17 79 -52 98 -86 37 -68 49 -139 27 -157 -12 -9 -137 -38 -268 -63 -25 -5 -67 -14 -95 -21 -27 -6 -63 -12 -80 -13 l-30 -1 1 60 c2 121 58 230 143 275 44 23 156 27 204 6z"/>
    <path d="M 14412.1 1662.06 C 14379.1 1651.06 14334.1 1628.06 14310.1 1613.06 C 14266.1 1582.06 14208.1 1502.06 14188.1 1442.06 C 14173.1 1397.06 14172.1 1283.06 14187.1 1246.06 C 14217.1 1172.06 14228.1 1155.06 14263.1 1119.06 C 14330.1 1050.06 14371.1 1026.06 14596.1 919.063 C 14712.1 865.063 14760.1 819.063 14759.1 767.063 C 14758.1 724.063 14738.1 701.063 14680.1 674.063 C 14630.1 650.063 14516.1 645.063 14469.1 664.063 C 14369.1 705.063 14326.1 739.063 14263.1 828.063 C 14243.1 856.063 14205.1 861.063 14186.1 838.063 C 14176.1 826.063 14176.1 806.063 14185.1 746.063 C 14191.1 703.063 14198.1 650.063 14199.1 629.063 C 14201.1 594.063 14206.1 586.063 14246.1 562.063 C 14271.1 547.063 14300.1 534.063 14312.1 534.063 C 14323.1 533.063 14336.1 530.063 14340.1 526.063 C 14353.1 513.063 14477.1 495.063 14555.1 494.063 C 14691.1 492.063 14832.1 541.063 14906.1 616.063 C 15036.1 746.063 15038.1 943.063 14909.1 1064.06 C 14872.1 1099.06 14783.1 1163.06 14772.1 1163.06 C 14756.1 1163.06 14507.1 1288.06 14477.1 1310.06 C 14459.1 1324.06 14438.1 1351.06 14430.1 1369.06 C 14418.1 1399.06 14418.1 1408.06 14431.1 1439.06 C 14460.1 1509.06 14504.1 1533.06 14605.1 1533.06 C 14663.1 1533.06 14679.1 1529.06 14725.1 1501.06 C 14762.1 1478.06 14786.1 1454.06 14803.1 1423.06 C 14834.1 1368.06 14855.1 1343.06 14872.1 1343.06 C 14894.1 1343.06 14916.1 1386.06 14916.1 1430.06 C 14916.1 1453.06 14921.1 1495.06 14927.1 1523.06 C 14936.1 1567.06 14936.1 1577.06 14922.1 1592.06 C 14903.1 1612.06 14820.1 1647.06 14738.1 1669.06 C 14658.1 1690.06 14485.1 1686.06 14412.1 1662.06 Z"/>
    <path d="M5485 1660 c-11 -5 -76 -9 -145 -10 -137 -1 -164 -10 -158 -52 3 -22 13 -29 99 -68 50 -23 56 -76 18 -152 -5 -10 -9 -25 -9 -33 0 -8 -4 -23 -9 -33 -6 -9 -22 -51 -36 -92 -15 -41 -30 -84 -35 -95 -10 -26 -96 -254 -104 -277 -10 -33 -21 -18 -45 60 -14 42 -28 84 -32 92 -4 8 -39 98 -78 200 -74 189 -83 212 -102 254 -14 29 -8 67 11 77 8 4 35 13 59 20 53 16 73 49 47 77 -15 17 -37 19 -293 20 -206 1 -279 -2 -285 -11 -20 -32 -7 -55 60 -104 55 -40 74 -61 95 -107 15 -31 27 -61 27 -66 0 -6 4 -18 9 -28 11 -19 29 -62 61 -142 12 -30 29 -70 36 -87 29 -69 42 -99 59 -143 21 -54 40 -99 60 -142 8 -18 24 -58 35 -88 12 -30 27 -68 35 -85 55 -126 58 -171 16 -254 -63 -124 -126 -165 -248 -160 -57 3 -76 0 -83 -11 -13 -20 -12 -96 0 -141 8 -30 17 -38 49 -47 94 -29 215 1 282 69 49 50 110 157 172 299 8 19 26 60 40 90 14 30 34 76 46 102 11 26 21 50 21 53 0 3 15 38 34 78 19 40 46 101 61 137 15 36 34 81 42 100 8 19 19 44 23 55 23 54 41 98 54 128 8 17 26 61 41 97 72 173 105 246 143 313 12 21 22 49 22 64 0 44 -46 64 -95 43z"/>
    <path d="M 13411.3 1663.15 C 13378.3 1652.15 13333.3 1629.15 13309.3 1614.15 C 13265.3 1583.15 13207.3 1503.15 13187.3 1443.15 C 13172.3 1398.15 13171.3 1284.15 13186.3 1247.15 C 13216.3 1173.15 13227.3 1156.15 13262.3 1120.15 C 13329.3 1051.15 13370.3 1027.15 13595.3 920.151 C 13711.3 866.151 13759.3 820.151 13758.3 768.151 C 13757.3 725.151 13737.3 702.151 13679.3 675.151 C 13629.3 651.151 13515.3 646.151 13468.3 665.151 C 13368.3 706.151 13325.3 740.151 13262.3 829.151 C 13242.3 857.151 13204.3 862.151 13185.3 839.151 C 13175.3 827.151 13175.3 807.151 13184.3 747.151 C 13190.3 704.151 13197.3 651.151 13198.3 630.151 C 13200.3 595.151 13205.3 587.151 13245.3 563.151 C 13270.3 548.151 13299.3 535.151 13311.3 535.151 C 13322.3 534.151 13335.3 531.151 13339.3 527.151 C 13352.3 514.151 13476.3 496.151 13554.3 495.151 C 13690.3 493.151 13831.3 542.151 13905.3 617.151 C 14035.3 747.151 14037.3 944.151 13908.3 1065.15 C 13871.3 1100.15 13782.3 1164.15 13771.3 1164.15 C 13755.3 1164.15 13506.3 1289.15 13476.3 1311.15 C 13458.3 1325.15 13437.3 1352.15 13429.3 1370.15 C 13417.3 1400.15 13417.3 1409.15 13430.3 1440.15 C 13459.3 1510.15 13503.3 1534.15 13604.3 1534.15 C 13662.3 1534.15 13678.3 1530.15 13724.3 1502.15 C 13761.3 1479.15 13785.3 1455.15 13802.3 1424.15 C 13833.3 1369.15 13854.3 1344.15 13871.3 1344.15 C 13893.3 1344.15 13915.3 1387.15 13915.3 1431.15 C 13915.3 1454.15 13920.3 1496.15 13926.3 1524.15 C 13935.3 1568.15 13935.3 1578.15 13921.3 1593.15 C 13902.3 1613.15 13819.3 1648.15 13737.3 1670.15 C 13657.3 1691.15 13484.3 1687.15 13411.3 1663.15 Z"/>
  </g>
  <title>Furry Kindness logo</title>
  <g transform="matrix(0.1, 0, 0, -0.1, 9.405838, 226.963409)" fill="#3f2318" stroke="none">
    <path d="M675 2115 c-49 -26 -92 -74 -116 -129 -28 -63 -38 -229 -19 -315 28 -125 115 -254 209 -309 64 -37 138 -37 203 1 40 23 53 39 85 105 34 70 38 86 41 178 5 118 -7 187 -49 273 -38 81 -79 133 -137 173 -38 26 -57 32 -116 35 -52 3 -79 0 -101 -12z"/>
    <path d="M1477 2106 c-155 -56 -270 -280 -254 -495 7 -96 29 -158 74 -210 48 -56 80 -71 156 -71 52 0 71 5 108 28 63 41 116 103 154 184 46 95 58 163 52 283 -5 116 -25 170 -84 227 -66 64 -130 81 -206 54z"/>
    <path d="M133 1600 c-52 -27 -100 -95 -109 -158 -24 -158 34 -338 142 -445 151 -150 319 -116 370 74 18 69 17 118 -1 198 -56 235 -260 403 -402 331z"/>
    <path d="M2010 1573 c-59 -21 -156 -120 -193 -195 -86 -178 -72 -377 31 -456 30 -23 45 -27 96 -27 78 0 125 23 196 95 177 178 186 504 16 581 -49 22 -86 23 -146 2z"/>
    <path d="M1070 1204 c-43 -8 -114 -36 -151 -61 -20 -13 -74 -72 -120 -130 -46 -58 -138 -155 -204 -216 -139 -128 -158 -148 -192 -201 -46 -72 -66 -143 -67 -246 0 -84 2 -101 26 -145 81 -155 237 -215 443 -170 328 73 353 73 664 5 196 -42 320 -15 414 89 74 82 98 231 58 359 -26 84 -44 108 -210 272 -81 80 -172 179 -203 220 -117 158 -214 220 -352 225 -45 2 -92 1 -106 -1z"/>
  </g>
</svg>