<svg version="1.0" xmlns="http://www.w3.org/2000/svg"
     width="231.000000pt" height="216.000000pt" viewBox="0 0 231.000000 216.000000">
    <title>Furry Kindness logo</title>
    <g transform="translate(0.000000,216.000000) scale(0.100000,-0.100000)"
       fill="#3f2318" stroke="none">
        <path d="M675 2115 c-49 -26 -92 -74 -116 -129 -28 -63 -38 -229 -19 -315 28
-125 115 -254 209 -309 64 -37 138 -37 203 1 40 23 53 39 85 105 34 70 38 86
41 178 5 118 -7 187 -49 273 -38 81 -79 133 -137 173 -38 26 -57 32 -116 35
-52 3 -79 0 -101 -12z"/>
        <path d="M1477 2106 c-155 -56 -270 -280 -254 -495 7 -96 29 -158 74 -210 48
-56 80 -71 156 -71 52 0 71 5 108 28 63 41 116 103 154 184 46 95 58 163 52
283 -5 116 -25 170 -84 227 -66 64 -130 81 -206 54z"/>
        <path d="M133 1600 c-52 -27 -100 -95 -109 -158 -24 -158 34 -338 142 -445
151 -150 319 -116 370 74 18 69 17 118 -1 198 -56 235 -260 403 -402 331z"/>
        <path d="M2010 1573 c-59 -21 -156 -120 -193 -195 -86 -178 -72 -377 31 -456
30 -23 45 -27 96 -27 78 0 125 23 196 95 177 178 186 504 16 581 -49 22 -86
23 -146 2z"/>
        <path d="M1070 1204 c-43 -8 -114 -36 -151 -61 -20 -13 -74 -72 -120 -130 -46
-58 -138 -155 -204 -216 -139 -128 -158 -148 -192 -201 -46 -72 -66 -143 -67
-246 0 -84 2 -101 26 -145 81 -155 237 -215 443 -170 328 73 353 73 664 5 196
-42 320 -15 414 89 74 82 98 231 58 359 -26 84 -44 108 -210 272 -81 80 -172
179 -203 220 -117 158 -214 220 -352 225 -45 2 -92 1 -106 -1z"/>
    </g>
</svg>
